<svg width="2000" height="2000" viewBox="0 0 2000 2000" xmlns="http://www.w3.org/2000/svg"><g fill="none" fill-rule="evenodd"><path d="m1229.31 56l-557.05 230.68-587.26-196.88v1671.18l608.42 198.03 608.46-244.08 596.11 77.81v-1664.88l-668.69-71.841m-11.527 98l-518.33 206.43-546.45-176.19v1495.54l566.14 177.21 566.18-218.43 554.69 69.63v-1489.91l-622.22-64.29" fill="#4a4a4a"/><path fill="#fff" d="m1217.78 154l-518.33 206.43-546.45-176.18v1495.54l566.14 177.21 566.17-218.43 554.69 69.63v-1489.91z"/><g transform="translate(275 330)"><g fill="#4a4a4a"><rect transform="matrix(.42262-.90631.90631.42262-767.82 802.91)" x="167.49" y="971.85" width="157.51" height="64.46" rx="20"/><rect transform="matrix(.42262-.90631.90631.42262-536.71 785.46)" x="269.35" y="781.73" width="157.51" height="64.46" rx="20"/><rect transform="matrix(.55919.82904-.82904.55919 418.92-62.43)" x="189.41" y="330.49" width="157.51" height="64.46" rx="20"/><rect transform="matrix(.5.86603-.86603.5 1436.28-689.4)" x="1236.42" y="866.92" width="157.51" height="64.46" rx="20"/><rect transform="matrix(.5.86603-.86603.5 1193.31-686.6)" x="1112.51" y="657.9" width="157.51" height="64.46" rx="20"/><rect transform="matrix(.5.86603-.86603.5 959.05-679.99)" x="989.66" y="458.34" width="157.51" height="64.46" rx="20"/><rect transform="matrix(.99452.10453-.10453.99452 22.818-41.817)" x="331.61" y="164.56" width="157.51" height="64.46" rx="20"/><rect transform="matrix(.99452.10453-.10453.99452 28.608-68.26)" x="586.77" y="206.57" width="157.51" height="64.46" rx="20"/></g><g fill="#78a300"><path d="m165.99 1168.24v-41.506c0-11.04-8.955-19.994-20-19.994h-45.946c-11.05 0-20 8.952-20 19.994v41.506h-41.506c-11.04 0-19.994 8.955-19.994 20v45.946c0 11.05 8.952 20 19.994 20h41.506v42.567c0 11.04 8.955 19.994 20 19.994h45.946c11.05 0 20-8.952 20-19.994v-42.567h42.567c11.04 0 19.994-8.955 19.994-20v-45.946c0-11.05-8.952-20-19.994-20h-42.567" transform="matrix(.98163.19081-.19081.98163 233.48-1.31)"/><path d="m524.06 570.58v-41.506c0-11.04-8.955-19.994-20-19.994h-45.946c-11.05 0-20 8.952-20 19.994v41.506h-41.506c-11.04 0-19.994 8.955-19.994 20v45.946c0 11.05 8.952 20 19.994 20h41.506v42.567c0 11.04 8.955 19.994 20 19.994h45.946c11.05 0 20-8.952 20-19.994v-42.567h42.567c11.04 0 19.994-8.955 19.994-20v-45.946c0-11.05-8.952-20-19.994-20h-42.567" transform="matrix(.98163.19081-.19081.98163 126.02-80.61)"/><path d="m165.99 80.07v-41.506c0-11.04-8.955-19.994-20-19.994h-45.946c-11.05 0-20 8.952-20 19.994v41.506h-41.506c-11.04 0-19.994 8.955-19.994 20v45.946c0 11.05 8.952 20 19.994 20h41.506v42.567c0 11.04 8.955 19.994 20 19.994h45.946c11.05 0 20-8.952 20-19.994v-42.567h42.567c11.04 0 19.994-8.955 19.994-20v-45.946c0-11.05-8.952-20-19.994-20h-42.567" transform="matrix(.98163.19081-.19081.98163 25.849-21.302)"/><path d="m997.64 255.48v-41.506c0-11.04-8.955-19.994-20-19.994h-45.946c-11.05 0-20 8.952-20 19.994v41.506h-41.506c-11.04 0-19.994 8.955-19.994 20v45.946c0 11.05 8.952 20 19.994 20h41.506v42.567c0 11.04 8.955 19.994 20 19.994h45.946c11.05 0 20-8.952 20-19.994v-42.567h42.567c11.04 0 19.994-8.955 19.994-20v-45.946c0-11.05-8.952-20-19.994-20h-42.567" transform="matrix(.98163.19081-.19081.98163 74.6-176.77)"/><path d="m1471.22 1070.55v-41.506c0-11.04-8.955-19.994-20-19.994h-45.946c-11.05 0-20 8.952-20 19.994v41.506h-41.506c-11.04 0-19.994 8.955-19.994 20v45.946c0 11.05 8.952 20 19.994 20h41.506v42.567c0 11.04 8.956 19.994 20 19.994h45.946c11.05 0 20-8.952 20-19.994v-42.567h42.567c11.04 0 19.994-8.955 19.994-20v-45.946c0-11.05-8.952-20-19.994-20h-42.567" transform="matrix(.98163.19081-.19081.98163 238.82-252.15)"/></g></g></g></svg>
